<?xml version="1.0" encoding="UTF-8" standalone="no"?>
<svg
   xmlns:dc="http://purl.org/dc/elements/1.1/"
   xmlns:cc="http://creativecommons.org/ns#"
   xmlns:rdf="http://www.w3.org/1999/02/22-rdf-syntax-ns#"
   xmlns:svg="http://www.w3.org/2000/svg"
   xmlns="http://www.w3.org/2000/svg"
   viewBox="0 0 576 624"
   height="624"
   width="576"
   xml:space="preserve"
   id="svg2"
   version="1.1"><metadata
     id="metadata8"><rdf:RDF><cc:Work
         rdf:about=""><dc:format>image/svg+xml</dc:format><dc:type
           rdf:resource="http://purl.org/dc/dcmitype/StillImage" /></cc:Work></rdf:RDF></metadata><defs
     id="defs6" /><g
     transform="matrix(1.3333333,0,0,-1.3333333,0,624)"
     id="g10"><g
       transform="scale(0.1)"
       id="g12"><path
         id="path14"
         style="fill:#472a84;fill-opacity:1;fill-rule:nonzero;stroke:none"
         d="m 3220.33,2629.46 c 0,94.76 -3.96,1098.55 -4.78,1139.67 l -2.16,109.05 -101.93,47.82 c -313.5,147.05 -619.65,193.87 -805.03,208.32 7.89,-9.43 17.6,-17.98 29.3,-25.79 185.38,-17 472.16,-65.9 765.5,-203.49 l 88.75,-41.64 1.88,-94.72 c 0.81,-41.08 4.78,-1044.47 4.78,-1139.22 0,-120.12 -178.77,-304.54 -322.35,-443.04 -121.21,-116.94 -359.68,-338.08 -646.06,-465.77 l -68.23,-30.4 -68.21,30.4 c -286.39,127.69 -512.58,341.39 -633.79,458.33 -143.58,138.52 -334.64,330.39 -334.64,450.48 0,94.94 3.97,1098.46 4.78,1139.22 l 1.88,94.72 88.75,41.64 c 295.64,138.67 584.56,187.26 769.73,203.89 11.57,7.79 21.2,16.31 29.01,25.7 -184.97,-14.1 -493.26,-60.55 -808.97,-208.63 l -101.92,-47.82 -2.16,-109.05 c -0.81,-40.8 -4.79,-1044.71 -4.79,-1139.67 0,-102.88 128.17,-261.04 341.71,-467.03 122.33,-118.03 350.89,-333.76 640.6,-462.92 l 78.02,-34.77 78.04,34.77 c 289.69,129.17 530.55,352.33 652.87,470.35 213.53,205.99 329.42,356.71 329.42,459.6 z M 2161.76,4133.73 c 0.74,2.26 1.57,4.52 2.14,6.77 -1.26,0.01 -2.69,0.02 -3.9,0.02 -0.07,0 -0.17,0 -0.25,0 0.57,-2.26 1.26,-4.52 2.01,-6.79" /><path
         id="path16"
         style="fill:#472a84;fill-opacity:1;fill-rule:nonzero;stroke:none"
         d="m 1695.13,3073.21 c 19.64,138.29 90.3,473.88 331.89,744.01 0,0 -505.37,-153.09 -638.86,-880.85 l 306.97,136.84" /><path
         id="path18"
         style="fill:#472a84;fill-opacity:1;fill-rule:nonzero;stroke:none"
         d="m 2622.27,3073.21 c -19.64,138.29 -90.3,473.88 -331.88,744.01 0,0 505.37,-153.09 638.86,-880.85 l -306.98,136.84" /><path
         id="path20"
         style="fill:#472a84;fill-opacity:1;fill-rule:nonzero;stroke:none"
         d="m 3126.41,3755.21 -1.2,62.13 -57.05,27.58 c -229.61,110.98 -458.17,163.49 -632.07,188.21 -2.84,-31.66 -6.93,-78.85 -9.77,-118.38 150.04,-23.06 341.4,-69.4 533.7,-162.35 l 50.26,-24.3 1.06,-54.74 c 0.52,-26.97 -0.52,-476.15 -1.16,-758.17 l 97.07,-39.6 -97.36,-92.06 c -0.1,-45.24 -0.16,-77.3 -0.16,-89.08 0,-40.66 -30.63,-96.83 -72.08,-154.23 v 178.54 l -377.48,168.28 h -801.9 l -375.93,-167.59 v -181.11 c -42.13,58.05 -73.45,115 -73.45,156.11 0,12.28 -0.06,46.67 -0.17,95.01 l -94.46,89.3 94.18,38.42 c -0.64,282.14 -1.67,729.27 -1.16,756.18 l 1.06,54.74 36.54,24.3 c 195.02,94.26 397.93,140.63 552.39,163.35 -2.86,39.68 -6.96,86.83 -9.78,118.21 -178.12,-24.34 -420.29,-76.75 -652.6,-189.04 l -41.48,-27.58 -1.2,-62.13 c -0.82,-42.88 1.83,-1004.39 1.83,-1088.69 0,-112.14 205.13,-328.16 293.32,-415.83 116.67,-115.97 353.32,-329.33 627.35,-455.19 l 44.6,-20.5 44.6,20.5 c 274.03,125.86 510.68,339.22 627.35,455.19 0.83,0.83 1.75,1.75 2.6,2.6 0,-0.24 0.01,-0.47 0.01,-0.7 v 0.71 c 89.52,89.23 290.71,302.14 290.71,413.22 0,84.3 2.65,1045.81 1.83,1088.69 z M 1651.14,2460.41 c 79.03,-18.06 97.66,-103.44 99.03,-207.82 v -88.76 c -76.27,61.91 -139.18,120.85 -182.86,164.27 -16.55,16.45 -37.78,38.06 -60.93,62.78 12.38,29.52 31.33,51.96 59.68,63.78 l -21.37,122.13 -75.51,-34.31 v 43.69 l 275.76,125.31 v -43.69 l -62.48,-28.39 z m 568.53,-4.77 c 90.01,-25.47 155.9,-106.65 155.9,-203.05 v -228.36 c -56.06,-35.58 -115.42,-68.9 -176.96,-97.17 l -39.3,-18.05 -39.29,18.05 c -61.23,28.12 -120.31,61.23 -176.11,96.61 v 228.92 c 0,96.4 65.89,177.58 155.9,203.05 l -39.73,212.15 h -98.38 v 43.69 h 396.6 v -43.69 h -98.9 z m 533.75,-0.98 c 28.14,-11.74 47.08,-33.88 59.48,-63.08 -23.41,-25.02 -44.89,-46.87 -61.59,-63.48 -43.51,-43.25 -106.13,-101.92 -182.01,-163.57 v 88.06 c 1.37,104.38 20.02,189.76 99.04,207.82 l -31.32,178.99 -62.48,28.39 v 43.69 l 275.76,-125.31 v -43.69 l -75.51,34.31 -21.37,-122.13" /><path
         id="path22"
         style="fill:#472a84;fill-opacity:1;fill-rule:nonzero;stroke:none"
         d="m 2355.71,3923.26 7.08,117.62 c 0,0 -167.26,-8.47 -164.69,335.53 0,0 -7.92,5.6 -23.24,8.38 19.66,6.28 33.95,24.17 33.95,45.52 0,26.56 -21.97,48.09 -49.07,48.09 -27.1,0 -49.08,-21.53 -49.08,-48.09 0,-21.1 13.96,-38.83 33.26,-45.31 -16.2,-2.68 -24.62,-8.59 -24.62,-8.59 8.66,-344 -164.69,-335.53 -164.69,-335.53 l 7.09,-117.62 c 128.57,-2.03 134.78,-87.24 134.78,-87.24 -243.69,-290.85 -280.26,-612.74 -283.48,-753.9 h 691.4 c -3.22,141.16 -39.78,463.05 -283.48,753.9 0,0 6.22,85.21 134.79,87.24" /><path
         id="path24"
         style="fill:#472a84;fill-opacity:1;fill-rule:nonzero;stroke:none"
         d="m 3835.04,453.969 c -44.5,0 -78.6,-35.93 -78.6,-78.528 0,-44.429 33.49,-78.519 78.6,-78.519 45.12,0 79.23,37.148 79.23,78.519 0,42.598 -34.11,78.528 -79.23,78.528 z m 0,-13.93 c 35.34,0 61.63,-28.648 61.63,-64.598 0,-36.539 -26.29,-63.98 -61.63,-63.98 -34.72,0 -61,27.441 -61,63.98 0,35.95 25.06,64.598 61,64.598 z m 45.12,-99.32 c -2.44,1.203 -4.89,3.019 -7.95,6.07 -9.13,10.383 -13.99,17.102 -20.06,28.652 9.72,3.618 16.4,10.34 16.4,20.719 0,17.649 -15.79,21.27 -29.23,21.27 h -41.45 v -9.059 c 9.78,-0.609 11,-0.609 11,-11.601 v -41.43 c 0,-10.988 -1.22,-10.988 -11.61,-11.602 v -9.668 h 40.84 v 9.668 c -10.4,0.614 -11.62,0.614 -11.62,11.602 V 370 h 2.44 c 3.06,0 6.12,-0.609 8.57,-4.27 2.45,-4.281 5.5,-12.218 11.01,-19.55 7.29,-9.692 15.8,-12.719 29.22,-12.719 z m -53.68,38.34 v 21.98 c 0,6.109 2.44,7.332 7.95,7.332 4.89,0 14.68,-2.441 14.68,-14.039 0,-6.113 -1.83,-10.383 -6.73,-12.832 -2.44,-1.828 -7.34,-2.441 -10.4,-2.441 h -5.5" /><path
         id="path26"
         style="fill:#472a84;fill-opacity:1;fill-rule:nonzero;stroke:none"
         d="M 570.059,1252.54 V 564.949 c 0,-80.679 -22.797,-133.301 -75.989,-164.879 -47.492,-26.308 -87.39,-28.058 -87.39,-68.398 0,-19.301 15.199,-31.582 45.601,-31.582 36.09,0 138.68,15.789 300.16,15.789 144.368,0 264.059,-15.789 355.239,-15.789 117.79,0 197.58,29.82 250.77,99.98 47.49,63.149 74.09,154.36 74.09,191.192 0,21.047 -11.4,35.09 -26.6,35.09 -37.99,0 -37.99,-61.403 -119.68,-124.543 -77.89,-61.387 -210.87,-101.739 -338.151,-101.739 -142.48,0 -151.98,36.84 -151.98,161.379 v 273.633 c 0,71.906 9.5,98.219 79.793,98.219 h 74.09 c 110.178,0 161.468,-17.539 191.868,-91.211 22.8,-57.879 3.8,-99.981 51.29,-99.981 20.9,0 32.3,10.532 32.3,33.332 0,21.047 -15.2,96.469 -15.2,228.029 0,80.68 7.6,122.78 7.6,133.3 0,24.56 -7.6,36.84 -30.4,36.84 -45.59,0 -45.59,-54.38 -81.69,-99.98 -37.99,-45.61 -85.48,-59.64 -167.171,-59.64 H 877.82 c -58.89,0 -81.691,21.05 -81.691,73.67 v 273.63 c 0,77.18 41.793,101.73 153.883,101.73 188.068,0 277.358,-24.55 317.248,-99.98 26.6,-52.62 -1.9,-101.73 49.39,-101.73 26.6,0 30.4,8.77 30.4,35.08 0,12.28 -1.9,63.15 -1.9,149.09 0,21.05 0,33.33 0,36.84 0,57.88 -11.4,63.14 -75.99,63.14 -83.59,0 -262.16,-14.03 -537.621,-14.03 -203.269,0 -311.559,14.03 -328.66,14.03 -32.289,0 -49.391,-14.03 -49.391,-36.83 0,-57.88 96.891,-17.54 165.282,-75.42 49.39,-42.1 51.289,-94.72 51.289,-180.67" /><path
         id="path28"
         style="fill:#472a84;fill-opacity:1;fill-rule:nonzero;stroke:none"
         d="m 3966.51,1517.4 c 0,21.05 -13.3,28.06 -41.79,28.06 -30.4,0 -89.29,-14.03 -178.58,-14.03 -91.19,0 -157.68,12.28 -197.57,12.28 -30.4,0 -47.49,-7.02 -47.49,-29.82 0,-47.36 68.39,-31.57 146.28,-59.64 74.08,-28.06 85.48,-99.98 85.48,-224.51 V 926.289 c 0,-187.687 -15.19,-319.238 -102.58,-413.957 -70.29,-77.172 -178.58,-119.273 -303.96,-119.273 -136.78,0 -245.07,59.64 -307.76,161.371 -51.29,84.191 -53.19,187.679 -53.19,313.968 0,8.774 0,17.543 0,26.313 v 278.899 c 0,173.65 1.9,256.09 60.79,287.66 45.6,24.56 94.99,17.54 94.99,54.38 0,22.8 -17.1,31.57 -51.29,31.57 -39.9,0 -125.39,-17.54 -262.17,-17.54 -104.48,0 -178.57,12.28 -218.47,12.28 -10.17,0 -18.47,-0.73 -25.38,-2.21 -0.07,-0.01 -0.13,-0.02 -0.19,-0.04 -3.46,-0.75 -6.53,-1.73 -9.21,-2.94 -0.14,-0.06 -0.29,-0.13 -0.43,-0.19 -1.2,-0.56 -2.37,-1.15 -3.41,-1.82 -13.72,-7.11 -24.28,-20.1 -35.08,-39.7 -1.79,-3.09 -3.46,-6.36 -5.14,-9.67 -0.13,-0.26 -0.26,-0.47 -0.4,-0.74 -0.05,-0.1 -0.07,-0.17 -0.12,-0.27 -6.84,-13.4 -14.53,-26.62 -35.16,-26.62 -34.2,0 -176.68,107 -421.74,107 -195.68,0 -362.85,-73.67 -486.34,-208.73 -113.98,-126.29 -178.57,-292.93 -178.57,-468.331 0,-357.828 250.76,-606.898 625.01,-606.898 188.08,0 349.55,57.879 480.63,173.648 85.49,75.422 125.39,136.813 125.39,163.133 0,17.539 -9.5,26.309 -24.7,26.309 -34.2,0 -55.09,-47.36 -113.98,-96.481 -110.19,-89.449 -241.27,-138.57 -364.75,-138.57 -159.58,0 -290.66,75.43 -387.55,221.012 -70.29,103.488 -108.28,233.289 -108.28,363.089 0,313.969 182.37,501.659 402.74,501.659 167.18,0 328.65,-84.2 436.94,-224.52 81.69,-107 75.99,-156.11 117.78,-156.11 17.1,0 26.6,8.77 26.6,31.57 0,29.82 -20.9,128.05 -28.5,287.66 -0.65,18.09 -0.43,32.99 -1.37,44.86 20.04,-4.25 47.99,-6.77 81.7,-18.54 64.59,-21.05 83.59,-49.12 83.59,-156.11 V 875.422 c 0,-394.66 129.18,-589.363 512.93,-589.363 383.75,0 577.52,210.492 577.52,631.461 v 224.51 c 0,189.44 0,287.67 41.79,315.73 45.6,29.82 94.99,19.3 94.99,59.64" /></g></g></svg>