<?xml version="1.0" standalone="no"?>
<!DOCTYPE svg PUBLIC "-//W3C//DTD SVG 20010904//EN"
 "http://www.w3.org/TR/2001/REC-SVG-20010904/DTD/svg10.dtd">
<svg version="1.0" xmlns="http://www.w3.org/2000/svg"
 width="691.000000pt" height="901.000000pt" viewBox="0 0 691.000000 901.000000"
 preserveAspectRatio="xMidYMid meet">

<g transform="translate(0.000000,901.000000) scale(0.100000,-0.100000)"
fill="#000000" stroke="none">
<path d="M3449 8985 c-369 -70 -739 -315 -1091 -725 -210 -244 -267 -305 -398
-425 -302 -276 -603 -506 -870 -664 -124 -73 -214 -150 -261 -223 -29 -45 -33
-60 -32 -109 1 -71 25 -145 63 -197 56 -78 530 -397 729 -491 l61 -29 -166
-65 c-258 -103 -384 -199 -453 -347 -35 -76 -35 -179 1 -267 l25 -62 -30 -12
c-60 -25 -213 -133 -278 -196 -37 -35 -101 -115 -143 -178 l-76 -113 -85 6
c-81 5 -88 3 -152 -28 -86 -42 -156 -113 -194 -193 -78 -168 -111 -422 -71
-554 24 -78 83 -176 147 -243 38 -41 44 -52 55 -125 8 -47 14 -174 15 -305 1
-185 5 -246 23 -343 54 -291 166 -515 311 -622 39 -28 66 -38 135 -50 47 -8
125 -22 172 -30 48 -8 126 -15 175 -15 79 0 90 3 117 25 16 13 35 38 42 54 12
30 34 41 85 41 43 0 95 39 139 103 35 51 42 56 104 72 78 21 130 67 150 132
17 56 15 173 -3 217 -12 27 -34 172 -35 229 0 4 -29 38 -63 75 -35 37 -72 80
-81 94 -12 18 -38 34 -79 48 -34 11 -72 26 -84 33 l-23 13 29 34 c93 114 184
370 166 466 -4 22 -29 58 -70 104 -68 73 -77 98 -50 137 l15 21 72 -19 c92
-24 279 -49 365 -49 64 0 66 -1 119 -49 30 -27 92 -73 138 -103 58 -37 96 -69
125 -108 52 -70 116 -199 135 -270 l14 -55 -33 -44 c-29 -40 -40 -47 -101 -63
-109 -30 -244 -100 -291 -151 -57 -62 -88 -180 -65 -246 9 -25 7 -41 -14 -92
-14 -34 -36 -111 -50 -172 -42 -191 -120 -330 -349 -627 -123 -160 -181 -243
-214 -308 -22 -43 -134 -373 -128 -378 1 -2 61 17 132 42 281 98 411 142 445
149 l35 7 -48 -38 c-95 -78 -184 -227 -207 -348 -14 -74 -8 -92 60 -168 45
-52 213 -170 233 -164 64 20 74 17 107 -35 18 -27 45 -58 60 -69 15 -11 33
-33 40 -50 26 -63 192 -136 335 -147 132 -10 388 45 420 90 21 30 19 55 -9
134 -33 91 -71 123 -191 163 -124 41 -128 45 -133 117 l-4 60 73 6 c41 3 97
14 125 24 l50 20 41 -86 c65 -137 140 -208 237 -226 68 -13 84 -76 48 -181
-29 -84 -46 -197 -38 -265 8 -76 49 -204 84 -259 16 -25 43 -52 63 -61 37 -18
185 -50 261 -57 43 -4 49 -2 59 22 13 28 24 33 35 15 3 -6 43 -38 88 -71 152
-114 297 -162 486 -161 74 0 116 5 143 16 99 43 185 137 207 229 22 89 -37
216 -122 259 -58 29 -134 104 -246 239 -122 147 -181 209 -264 276 -39 31 -68
63 -68 73 0 10 11 33 25 52 14 19 32 48 40 66 19 40 20 143 1 186 -7 18 -16
55 -20 82 -15 99 -55 175 -114 217 -21 14 -102 168 -102 193 0 8 5 15 11 15
20 0 175 79 249 127 41 27 97 69 125 93 l49 43 13 -49 c7 -27 16 -77 19 -112
4 -34 11 -65 16 -68 15 -10 114 64 158 116 83 99 169 251 201 353 30 97 31 99
73 118 65 28 90 52 144 136 62 98 93 158 103 203 9 40 -5 106 -28 132 -19 22
-7 45 66 122 71 74 110 101 284 193 322 170 500 329 601 535 l43 87 56 -45
c32 -24 57 -48 57 -52 0 -4 5 -35 10 -69 9 -56 8 -67 -11 -105 -43 -84 -5
-207 105 -340 107 -129 183 -157 426 -158 149 0 188 9 241 57 47 43 66 76 75
131 4 29 13 43 30 51 45 20 113 92 124 130 5 20 10 63 10 95 0 56 2 61 39 92
21 19 53 55 70 81 37 55 42 120 13 168 -10 17 -21 53 -25 82 -7 60 -44 143
-85 193 l-29 34 20 56 c37 101 25 293 -24 391 -52 105 -258 239 -424 278 -43
10 -54 18 -78 55 -49 77 -107 134 -197 195 -49 33 -97 62 -107 65 -14 4 -27
43 -60 174 -37 145 -43 183 -43 273 0 224 -69 357 -243 473 -103 69 -216 114
-326 132 -47 8 -89 14 -93 14 -22 0 0 22 79 80 334 247 497 409 572 570 51
108 59 255 17 286 -9 6 -104 25 -213 43 -416 69 -548 106 -616 174 -55 55
-115 188 -182 402 -66 213 -126 377 -168 460 -141 282 -391 483 -704 566 -103
28 -389 36 -504 14z m562 -310 c25 -9 55 -24 66 -35 21 -19 62 -151 71 -227
l5 -43 -47 16 c-25 9 -46 19 -46 22 -1 28 -32 147 -41 158 -13 16 -55 19 -64
4 -3 -5 1 -47 10 -92 25 -131 36 -312 26 -413 -9 -98 -5 -109 47 -122 33 -8
40 3 54 90 l12 77 35 -6 c68 -11 65 0 58 -160 -4 -79 -10 -151 -14 -158 -11
-17 -110 3 -236 48 l-92 32 2 45 c13 312 1 466 -52 667 -14 52 -25 98 -25 102
0 24 158 21 231 -5z m-287 -13 c8 -15 17 -44 21 -65 l7 -37 -48 2 c-44 3 -49
1 -71 -31 -13 -19 -21 -36 -19 -39 3 -2 40 -14 83 -27 76 -21 78 -23 90 -61 6
-21 12 -61 12 -88 l1 -48 -67 8 c-120 13 -118 14 -121 -28 l-3 -36 100 -33
101 -33 0 -73 c0 -39 -5 -95 -11 -123 l-11 -51 -56 32 c-172 95 -256 216 -269
386 -6 81 9 179 37 233 25 48 76 95 130 119 60 27 77 26 94 -7z m486 -122 c17
-12 37 -42 48 -73 42 -110 82 -356 82 -497 0 -54 2 -60 20 -60 13 0 24 10 31
28 13 33 17 214 6 302 l-7 65 20 -25 c50 -62 84 -200 78 -315 -7 -127 -44
-173 -158 -195 -91 -17 -88 -21 -83 148 6 165 -11 334 -52 518 -33 143 -33
138 15 104z m-784 -870 c34 -6 99 -28 146 -49 106 -49 304 -121 428 -156 52
-14 101 -28 108 -31 15 -4 -4 -47 -45 -102 -23 -31 -28 -33 -64 -27 -34 6 -42
3 -70 -25 -31 -30 -31 -32 -25 -99 6 -56 4 -72 -9 -85 -34 -34 -47 -24 -182
134 -220 256 -382 366 -575 388 l-63 8 54 18 c97 33 198 42 297 26z m-276
-171 c116 -61 258 -228 337 -394 19 -42 32 -79 29 -83 -4 -3 -80 31 -169 76
-185 95 -219 102 -267 54 -38 -39 -53 -113 -40 -198 20 -124 96 -331 164 -445
l34 -58 -47 -30 c-68 -44 -185 -96 -305 -136 -117 -40 -146 -43 -168 -17 -53
60 -108 232 -108 339 0 115 60 248 159 351 50 52 51 54 42 95 -37 171 -7 357
70 435 61 62 165 67 269 11z m1541 -97 c121 -190 163 -394 118 -577 -17 -69
-31 -95 -48 -93 -26 5 -25 -60 2 -133 30 -80 100 -319 95 -324 -2 -2 -26 11
-53 30 -28 18 -98 59 -157 90 l-108 57 0 68 c0 67 0 68 38 92 20 14 49 47 64
74 37 69 62 199 54 285 -9 84 -46 226 -80 303 -14 32 -26 66 -26 74 0 27 -17
1 -66 -98 -69 -142 -173 -275 -248 -317 -18 -10 -18 -12 -2 -60 19 -58 92
-167 177 -265 68 -79 76 -102 56 -151 -32 -75 -89 -86 -240 -43 -117 33 -162
32 -162 -4 0 -19 -6 -26 -26 -28 -51 -6 -79 57 -42 94 22 22 76 44 108 44 18
0 25 5 25 20 0 16 -7 20 -32 20 -57 -1 -114 -34 -137 -79 -19 -36 -28 -42 -79
-57 -31 -8 -94 -26 -138 -40 -45 -13 -85 -24 -88 -24 -3 0 16 28 43 61 28 34
66 92 85 128 38 72 86 225 86 272 0 21 10 38 35 61 69 60 106 150 125 310 9
75 17 98 53 158 l42 70 102 0 c99 0 103 -1 103 -22 0 -44 -107 -198 -138 -198
-8 0 -26 10 -39 22 -19 18 -28 20 -51 12 -43 -15 -55 -52 -41 -125 20 -100 65
-149 138 -149 29 0 43 9 82 50 55 59 135 211 175 333 l28 87 46 14 c75 23 82
21 121 -42z m-74 -225 c13 -30 30 -99 39 -152 14 -80 15 -109 5 -166 -19 -118
-71 -198 -137 -215 -39 -10 -39 2 0 40 54 55 69 90 64 153 -4 51 -33 108 -54
108 -5 0 -13 -10 -19 -22 -14 -34 -20 -28 -20 19 l0 43 -42 0 c-40 0 -41 1
-29 20 106 167 153 234 161 232 6 -2 20 -29 32 -60z m-267 -260 c0 -7 -6 -22
-14 -33 -22 -28 -41 -6 -20 24 17 24 34 29 34 9z m-1914 -164 c40 -29 62 -69
46 -85 -10 -10 -16 -10 -30 0 -9 7 -32 19 -49 27 -61 28 -127 -18 -140 -98 -6
-42 25 -120 56 -137 23 -12 20 -30 -6 -30 -28 0 -90 73 -103 120 -22 84 9 182
68 215 37 21 121 14 158 -12z m-36 -120 c0 -5 -14 -20 -32 -34 -27 -22 -30
-29 -20 -42 7 -8 22 -13 32 -10 11 3 27 2 36 -1 15 -6 15 -8 -1 -26 -23 -25
-50 -25 -75 0 -24 24 -26 77 -3 102 16 18 63 26 63 11z m929 -263 c37 -24 108
-54 181 -77 8 -2 -42 -33 -110 -69 -146 -77 -222 -121 -306 -180 l-60 -43 -67
40 c-37 22 -93 64 -124 93 l-56 52 93 33 c51 18 159 66 239 106 80 41 151 74
156 74 6 1 30 -12 54 -29z m-999 10 c13 -8 10 -19 -18 -71 -32 -57 -33 -61
-18 -85 9 -13 21 -24 26 -24 17 0 49 38 55 65 3 14 7 37 10 51 8 34 48 30 53
-6 9 -60 -33 -136 -91 -167 -32 -16 -75 -7 -109 23 -42 39 -31 127 24 190 32
36 43 40 68 24z m2099 -75 c191 -66 395 -150 412 -171 29 -35 -58 -214 -160
-328 -46 -50 -117 -96 -150 -96 -15 0 -53 13 -85 30 -33 16 -65 26 -72 22 -6
-4 -27 -27 -46 -52 -39 -53 -134 -119 -215 -151 -46 -18 -77 -23 -148 -22
-178 2 -371 82 -664 276 l-173 114 43 30 c129 89 263 131 504 158 83 9 177 26
210 37 88 29 264 123 315 168 25 22 50 39 57 40 6 0 84 -25 172 -55z m825 -40
c136 -29 316 -140 391 -243 19 -26 45 -78 56 -116 19 -59 21 -84 16 -175 -3
-60 -14 -137 -26 -178 -21 -71 -201 -500 -341 -809 -247 -546 -513 -982 -824
-1354 -208 -248 -305 -336 -383 -347 -53 -7 -73 13 -73 75 0 105 -66 313 -165
520 -98 204 -231 421 -438 717 -256 365 -609 704 -959 921 -120 74 -330 182
-436 223 -250 96 -628 154 -787 121 -77 -16 -115 -53 -115 -114 0 -80 36 -89
42 -11 3 34 8 43 38 58 31 16 54 18 188 14 84 -3 156 -7 159 -11 11 -10 -45
-62 -97 -90 -61 -33 -145 -63 -228 -80 l-62 -14 -31 36 c-46 52 -62 97 -62
177 1 184 112 282 451 399 184 64 269 84 406 96 286 27 678 -55 895 -188 l33
-20 -42 -46 c-26 -28 -40 -51 -36 -61 8 -22 25 -18 75 15 57 39 83 45 114 28
107 -56 506 -437 662 -633 228 -285 409 -620 500 -924 87 -293 103 -647 40
-923 -23 -103 -24 -138 -4 -138 10 0 53 133 80 248 10 46 57 169 105 280 338
773 473 1293 474 1819 0 87 6 145 20 205 11 46 25 138 32 206 6 67 14 122 18
122 4 0 64 -38 134 -85 111 -73 156 -93 156 -66 0 12 -77 88 -193 190 -124
109 -146 135 -125 147 41 26 240 31 342 9z m-439 -912 c-5 -36 -17 -52 -91
-122 -68 -64 -106 -91 -187 -131 -146 -72 -232 -92 -397 -94 -102 -1 -153 4
-208 18 -69 17 -75 21 -113 73 -23 30 -39 56 -37 58 2 2 44 -3 93 -12 138 -24
361 -14 480 22 177 52 288 131 397 283 l63 87 3 -70 c2 -38 0 -89 -3 -112z
m-66 -463 c-12 -91 -13 -93 -53 -122 -136 -100 -318 -148 -536 -140 l-55 2
-37 69 c-21 38 -38 71 -38 73 0 3 60 8 133 11 206 10 386 65 528 161 35 24 66
42 67 40 2 -1 -2 -44 -9 -94z m1563 9 c88 -18 196 -77 264 -144 79 -77 107
-145 108 -260 1 -102 -16 -155 -50 -155 -20 0 -29 11 -55 65 -36 77 -97 135
-189 179 -59 28 -74 31 -160 31 -111 -1 -187 -20 -248 -65 -23 -16 -44 -30
-47 -30 -3 0 -4 75 -3 167 l3 167 55 19 c108 37 223 47 322 26z m-5819 -125
c21 -7 22 -27 0 -90 -9 -27 -31 -103 -48 -169 -17 -66 -35 -120 -40 -120 -21
0 -54 109 -55 176 0 57 4 70 30 105 32 42 38 64 17 64 -23 0 -57 -31 -76 -68
-41 -82 -34 -179 21 -292 65 -134 307 -339 537 -455 246 -123 422 -112 491 30
32 65 13 76 -30 18 -43 -58 -101 -93 -155 -93 -71 0 -71 10 6 96 40 43 83 96
97 117 13 20 29 37 34 37 17 0 59 -50 78 -93 26 -57 26 -160 0 -234 -43 -123
-151 -251 -232 -274 -61 -18 -219 -15 -303 6 -200 50 -432 205 -593 397 -111
134 -149 196 -157 259 -14 115 30 329 96 466 32 67 47 87 82 108 38 24 48 25
112 20 39 -3 78 -8 88 -11z m5847 -251 c71 -25 172 -94 158 -108 -2 -2 -48 12
-103 32 -65 23 -126 37 -176 40 -70 5 -80 3 -129 -23 -64 -35 -111 -88 -156
-176 -19 -38 -37 -68 -40 -68 -9 0 6 88 23 140 36 107 116 162 263 180 65 8
99 4 160 -17z m-1724 -135 c-17 -125 -63 -154 -279 -173 l-77 -7 -14 33 c-7
19 -16 51 -20 71 l-7 37 48 6 c118 15 233 39 288 60 33 12 62 23 64 24 2 0 0
-22 -3 -51z m1686 31 c110 -24 237 -99 368 -218 l65 -59 -34 -9 c-19 -5 -36
-14 -38 -20 -2 -6 23 -34 56 -62 67 -59 101 -118 101 -179 0 -57 -22 -76 -110
-96 -181 -41 -394 -46 -510 -11 -91 27 -109 68 -69 152 24 49 21 60 -10 43
-17 -9 -22 -8 -27 4 -9 24 13 52 64 84 61 37 83 30 65 -19 -7 -18 -12 -34 -10
-35 1 -1 56 7 122 17 66 10 146 18 178 18 54 1 57 2 57 25 0 22 -5 25 -52 31
-29 4 -59 5 -67 3 -22 -5 -24 20 -2 32 12 6 21 17 21 25 0 12 -15 15 -67 15
-38 0 -97 7 -132 15 -35 9 -65 14 -66 13 -1 -2 -12 -20 -24 -40 -32 -54 -75
-82 -101 -68 -33 18 -41 4 -34 -64 8 -77 -11 -199 -34 -219 -42 -36 -49 -30
-48 42 1 79 -11 101 -59 101 -41 0 -48 17 -35 77 16 69 44 103 86 103 43 0 56
25 25 46 -29 21 -26 39 9 65 40 30 45 50 20 69 -17 13 -19 21 -12 40 15 38 42
58 102 74 67 18 132 20 202 5z m-476 -324 c-33 -64 -38 -81 -32 -116 l6 -41
-38 22 c-21 12 -44 30 -51 41 -10 18 -8 25 16 52 15 18 46 58 67 90 36 52 41
56 55 42 14 -14 12 -23 -23 -90z m-1376 -137 c0 -13 -9 -42 -19 -65 -18 -38
-23 -42 -66 -48 -25 -4 -48 -5 -51 -2 -3 3 -8 29 -11 59 l-5 54 63 10 c35 6
70 12 77 12 6 1 12 -8 12 -20z m1481 -85 c13 -34 5 -53 -21 -53 -23 0 -46 40
-37 64 10 26 46 19 58 -11z m4 -139 c43 -18 74 -7 111 39 l27 35 31 -30 c35
-36 91 -61 169 -78 66 -13 298 -18 347 -7 51 12 73 -8 73 -64 0 -55 -27 -113
-65 -141 -76 -54 -295 -46 -486 18 -127 42 -185 75 -224 128 -42 56 -78 135
-78 170 l0 29 31 -42 c16 -24 45 -49 64 -57z m-5529 -35 c177 -156 409 -239
672 -239 112 0 123 -2 178 -30 32 -16 81 -34 108 -41 34 -8 61 -23 85 -48 20
-20 55 -53 77 -73 39 -35 54 -69 54 -120 0 -25 -13 -22 -161 33 -87 33 -110
38 -132 30 l-26 -10 22 -62 c16 -45 29 -64 47 -72 14 -5 58 -25 99 -43 85 -40
91 -40 91 -14 0 20 -56 58 -122 81 -47 16 -39 29 17 29 58 0 161 -53 192 -99
30 -44 31 -137 3 -199 -23 -51 -64 -72 -140 -72 -46 0 -199 26 -209 36 -2 2 4
22 14 44 20 45 15 61 -12 38 -35 -31 -85 -49 -149 -55 -35 -3 -67 -10 -70 -14
-9 -14 41 -39 92 -45 27 -3 65 -12 84 -20 19 -8 64 -18 100 -22 60 -6 65 -9
68 -33 2 -19 -7 -35 -38 -62 -38 -35 -43 -37 -110 -37 -39 0 -109 10 -155 21
-76 19 -83 23 -75 40 13 24 13 49 -1 49 -6 0 -25 -11 -42 -24 -42 -31 -66 -36
-124 -25 -56 11 -75 6 -67 -16 11 -27 55 -42 184 -60 145 -20 172 -28 164 -49
-13 -33 -132 -46 -261 -27 -63 9 -68 13 -53 41 18 34 -3 49 -39 27 -39 -23
-63 -21 -120 8 -66 33 -125 103 -176 210 -52 108 -55 117 -101 320 -42 182
-52 310 -35 434 10 76 9 87 -9 128 -26 59 -26 103 0 103 4 0 38 -27 76 -61z
m5583 -178 c35 -22 98 -54 140 -70 82 -32 284 -67 331 -57 29 5 60 -17 60 -45
0 -33 -39 -78 -77 -88 -63 -18 -232 -24 -311 -12 -92 14 -142 39 -207 105 -98
98 -140 210 -104 278 10 19 13 18 57 -25 26 -25 76 -63 111 -86z m-1819 -668
l33 -6 -6 -86 c-8 -106 -38 -234 -64 -270 -31 -41 -109 -63 -251 -69 -99 -4
-130 -2 -166 12 -25 9 -49 23 -55 29 -12 15 17 153 49 240 33 88 48 102 137
121 143 31 263 42 323 29z m-461 -484 c67 -16 102 -19 159 -14 52 5 72 3 72
-5 0 -22 -93 -121 -174 -186 -72 -57 -243 -154 -272 -154 -7 0 -14 27 -18 63
-4 34 -18 110 -32 169 -14 59 -26 111 -27 115 -3 13 83 31 147 32 32 1 97 -8
145 -20z m-319 -92 c33 -93 47 -183 55 -335 5 -117 10 -150 26 -175 27 -45 59
-152 59 -199 0 -33 -6 -47 -35 -74 -19 -18 -61 -45 -92 -61 -114 -55 -331 -41
-479 31 -101 50 -102 53 -110 184 -5 79 -11 112 -19 112 -7 0 -16 -16 -19 -36
-6 -30 -10 -34 -29 -28 -35 10 -107 54 -169 102 -57 44 -168 173 -168 196 0 6
39 22 88 35 219 60 541 177 758 275 54 25 102 42 107 37 4 -4 16 -33 27 -64z
m-1017 -340 c55 -77 184 -199 260 -247 31 -19 56 -39 57 -43 0 -13 -82 -45
-135 -52 -109 -15 -276 47 -382 140 -62 54 -138 164 -124 178 5 5 70 27 143
48 73 20 134 38 135 38 1 1 22 -27 46 -62z m-306 -203 c97 -106 154 -142 293
-185 59 -19 98 -24 183 -24 118 0 124 -4 92 -64 -51 -99 -266 -93 -493 14
-112 53 -208 141 -248 229 -23 51 -24 57 -10 90 14 33 19 36 55 36 37 0 45 -6
128 -96z m1537 -139 c8 -9 18 -32 21 -53 4 -20 18 -86 31 -145 15 -65 23 -120
19 -138 -8 -36 -54 -75 -131 -110 -112 -51 -206 -70 -371 -76 l-151 -6 -65 31
c-103 48 -141 89 -173 185 -15 45 -38 104 -51 131 -13 26 -22 54 -19 62 8 20
46 17 86 -6 158 -92 288 -127 430 -116 165 12 243 46 323 141 23 28 26 38 17
59 -10 26 -4 56 10 56 5 0 15 -7 24 -15z"/>
<path d="M4305 6244 c-11 -2 -45 -9 -75 -15 -121 -23 -281 -82 -465 -169 -135
-65 -166 -71 -279 -57 -87 10 -89 10 -107 -12 -11 -13 -19 -35 -19 -50 0 -37
40 -102 78 -128 90 -60 197 -35 388 93 139 93 301 176 429 221 70 24 95 27
201 28 112 0 123 -2 156 -25 51 -34 72 -73 65 -122 -3 -23 -12 -47 -20 -56
-19 -19 -372 -83 -492 -89 -96 -5 -116 -13 -95 -38 19 -23 107 -19 281 15 85
16 190 33 234 36 71 6 84 10 113 37 66 63 62 160 -10 242 -65 74 -103 88 -243
91 -66 2 -129 1 -140 -2z"/>
<path d="M4025 2813 c-48 -4 -146 -21 -197 -34 -32 -8 -41 -17 -59 -59 -12
-27 -27 -55 -35 -61 -17 -14 -18 -71 -1 -88 6 -6 12 -31 12 -54 l0 -42 125 0
c154 1 193 12 219 64 22 43 46 133 56 210 10 73 6 75 -120 64z m-176 -192 c12
-8 10 -11 -10 -15 -29 -7 -57 -10 -83 -8 -15 2 -16 5 -6 17 14 17 77 20 99 6z"/>
<path d="M3377 2013 c-3 -5 -8 -28 -12 -53 -4 -25 -13 -55 -21 -67 -19 -30
-98 -69 -156 -78 -52 -8 -68 -29 -37 -46 37 -19 180 11 220 47 24 22 42 106
34 159 -6 41 -17 56 -28 38z"/>
<path d="M4665 399 c-105 -93 -45 -259 95 -259 140 0 200 166 95 259 -31 27
-43 31 -95 31 -52 0 -64 -4 -95 -31z m163 -9 c105 -64 56 -230 -68 -230 -47 0
-88 29 -111 78 -21 42 -21 44 -4 88 30 78 112 107 183 64z"/>
<path d="M4700 285 c0 -67 3 -85 14 -85 10 0 16 13 18 37 4 50 23 52 48 4 11
-23 27 -41 35 -41 19 0 19 13 1 49 -13 25 -13 29 5 44 44 38 11 77 -67 77
l-54 0 0 -85z m98 38 c3 -20 -1 -23 -32 -23 -32 0 -36 3 -36 26 0 23 3 25 33
22 24 -2 33 -8 35 -25z"/>
</g>
</svg>
