<?xml version="1.0" encoding="UTF-8" standalone="no"?>
<svg
   xmlns:dc="http://purl.org/dc/elements/1.1/"
   xmlns:cc="http://creativecommons.org/ns#"
   xmlns:rdf="http://www.w3.org/1999/02/22-rdf-syntax-ns#"
   xmlns:svg="http://www.w3.org/2000/svg"
   xmlns="http://www.w3.org/2000/svg"
   viewBox="0 0 4000 4000"
   height="4000"
   width="4000"
   xml:space="preserve"
   id="svg2"
   version="1.1"><metadata
     id="metadata8"><rdf:RDF><cc:Work
         rdf:about=""><dc:format>image/svg+xml</dc:format><dc:type
           rdf:resource="http://purl.org/dc/dcmitype/StillImage" /></cc:Work></rdf:RDF></metadata><defs
     id="defs6" /><g
     transform="matrix(1.3333333,0,0,-1.3333333,0,4000)"
     id="g10"><g
       transform="scale(0.1)"
       id="g12"><g
         transform="scale(1.84049)"
         id="g14"><path
           id="path16"
           style="fill:#ffffff;fill-opacity:1;fill-rule:evenodd;stroke:none"
           d="M 0.0021224,16300 H 16300 V 0 H 0.0021224 v 16300" /></g><g
         transform="scale(1.54921)"
         id="g18"><path
           id="path20"
           style="fill:#d3a657;fill-opacity:1;fill-rule:evenodd;stroke:none"
           d="m 9682.33,15975.7 c -371.68,-223.2 -761.29,-421.2 -1153.88,-602.7 -746.18,-345 -1523.48,-639.5 -2303.13,-899.7 -293.71,-98 -592.33,-194.3 -891.18,-281 V 9419.81 c 0,-1176.73 239.93,-2274.9 1100.95,-3125.59 424.13,-419.05 945.04,-732.75 1473.69,-1001.34 578.36,-293.83 1181.25,-544.99 1773.55,-811.06 592.27,266.07 1195.17,517.23 1773.57,811.06 528.6,268.59 1049.5,582.29 1473.7,1001.34 861,850.69 1100.9,1948.8 1100.9,3125.59 v 4772.49 c -298.8,86.7 -597.4,183 -891.1,281 -779.6,260.2 -1557,554.7 -2303.1,899.7 -392.7,181.5 -782.3,379.5 -1153.97,602.7 z m 0,-11797.19 C 7215.34,5298.43 5057.66,5926.17 5057.66,9419.81 v 4981.69 c 0,0 2839.7,778.8 4624.67,1898.5 C 11467.3,15180.3 14307,14401.5 14307,14401.5 V 9419.81 c 0,-3493.64 -2157.7,-4121.38 -4624.67,-5241.3" /></g><g
         transform="scale(1.49803)"
         id="g22"><path
           id="path24"
           style="fill:#131f43;fill-opacity:1;fill-rule:evenodd;stroke:none"
           d="m 10013.2,4843.84 c 584.9,261.21 1176.5,509.54 1747.7,799.85 528.9,268.62 1052.3,581.97 1476.5,1001.19 853.2,842.97 1082,1935.41 1082,3096.8 v 4793.02 c -265.3,79.4 -528.8,164.7 -791.4,252.3 -815.1,272 -1621.3,577.6 -2401.5,938.3 -379,175.2 -752.7,363.8 -1113.3,574.7 -360.63,-210.9 -734.33,-399.5 -1113.42,-574.7 -780.16,-360.7 -1586.42,-666.3 -2401.42,-938.3 -262.64,-87.6 -526.12,-172.9 -791.39,-252.3 V 9741.68 c 0,-1161.39 228.75,-2253.83 1081.96,-3096.8 424.23,-419.22 947.65,-732.57 1476.41,-1001.19 571.35,-290.31 1162.86,-538.64 1747.86,-799.85 v 0" /></g><g
         transform="scale(1.39517)"
         id="g26"><path
           id="path28"
           style="fill:#ffffff;fill-opacity:1;fill-rule:evenodd;stroke:none"
           d="m 15501,13345.4 h 799 v -2803.3 h -799 z m -10298.18,0 h 799.02 v -2803.3 h -799.02 v 2803.3" /></g><g
         transform="scale(1.32677)"
         id="g30"><path
           id="path32"
           style="fill:#ffffff;fill-opacity:1;fill-rule:evenodd;stroke:none"
           d="M 6311.23,14300.3 H 16300 V 10818.7 H 6311.23 v 3481.6" /></g><g
         transform="scale(1.47472)"
         id="g34"><path
           id="path36"
           style="fill:#d3a657;fill-opacity:1;fill-rule:evenodd;stroke:none"
           d="M 4042.91,10061.2 H 16300 V 9891.66 H 4042.91 Z m 0,2644.1 H 16300 v -169.6 H 4042.91 v 169.6" /></g><g
         transform="scale(1.57713)"
         id="g38"><path
           id="path40"
           style="fill:#131f43;fill-opacity:1;fill-rule:evenodd;stroke:none"
           d="m 4198.53,9744.63 v 278.27 h 195.92 v 1086.2 h -195.92 v 278.2 h 616.85 l 535.06,-1024.1 v 745.9 h -189.5 v 278.2 h 654.55 v -278.2 H 5610.96 V 9732.52 h -325.85 l -630.14,1217.28 v -926.9 h 183.01 v -278.27 h -639.45 z m 1694.49,0 v 278.27 h 221.77 v 1086.2 h -221.77 v 278.2 h 826.82 v -278.2 h -223.95 v -1086.2 h 223.95 v -278.27 z m 1478.13,-9.7 -434.27,1374.17 h -174.36 v 278.2 h 747.11 v -278.2 h -190.22 l 245.13,-818.9 247.22,818.9 h -185.84 v 278.2 h 645.92 v -278.2 H 8093.09 L 7674.36,9734.93 Z m 967.77,9.7 v 278.27 h 176.59 v 1086.2 h -176.59 v 278.2 h 1289.74 v -522.5 h -279.94 v 244.3 h -452.14 v -377.4 h 366.04 v -278.2 h -366.04 v -430.6 h 452.14 v 246.7 h 279.94 V 9744.63 H 8338.92 Z m 1995.98,982.27 h 129.8 c 160.5,0 240.5,64.1 240.5,192.7 0,63.7 -18.3,111.3 -54.9,142.4 -36.6,31.3 -86.9,47.1 -151.1,47.1 h -164.3 v -382.2 z m 943,-704 v -278.27 h -445.3 l -332.7,720.97 h -165 v -442.7 h 183 v -278.27 h -764.39 v 278.27 h 200.23 v 1086.2 h -200.23 v 278.2 h 881.39 c 166.1,0 285.6,-46.8 358.8,-140.7 73.2,-94 109.8,-200.4 109.8,-318.9 0,-186.3 -84.3,-322.2 -252.6,-408.1 l 237.6,-496.7 h 189.4 z m 99.1,-278.27 v 558.87 h 247.6 c 2.8,-102 26.5,-177 71.7,-225.4 44.9,-48 96.2,-72.2 153.6,-72.2 44.8,0 82.9,17.3 113.8,52.4 30.8,35.1 46.2,76.2 46.2,123.8 0,50.4 -15,92.7 -45.2,127 -30.1,34.3 -85.4,73 -165.4,117 -169.7,91.1 -284.6,171.7 -344.9,241.9 -60.3,70.1 -90.4,164.9 -90.4,284.2 0,143.6 39.8,254.8 119.5,333.5 80.1,79 170.5,118.5 272.1,118.5 115.9,0 205.9,-51.2 269.4,-153.2 v 136.3 h 247.6 v -498.4 H 12025 c -7.5,77 -31.2,136.7 -70.7,178.6 -39.5,42.4 -85.4,63.3 -137.7,63.3 -40.6,0 -74.7,-12 -102.7,-36.6 -28,-24.3 -42,-56.5 -42,-95.6 0,-33.8 11.5,-66.1 34.8,-96.4 23,-30.2 90.8,-73.4 203.1,-129 108.4,-54 191.3,-103.2 248.7,-146.8 57.8,-43.9 103.4,-100.4 137.1,-170.2 33.3,-69.7 50.3,-150.4 50.3,-241.9 0,-162 -42.1,-284.2 -126.4,-366.06 -84,-81.86 -183.4,-122.95 -298.5,-122.95 -128.2,0 -227.2,53.58 -296.4,160.48 V 9744.63 H 11377 Z m 1086.9,0 v 278.27 h 221.8 v 1086.2 h -221.8 v 278.2 h 826.8 v -278.2 h -224 v -1086.2 h 224 v -278.27 z m 1190.3,0 v 278.27 h 219.6 v 1086.2 h -219.6 v -382.2 h -251.9 v 660.4 h 1326.3 v -660.4 H 14481 v 382.2 h -226.1 v -1086.2 h 219.6 v -278.27 h -820.3 z m 1504.7,0 v 278.27 h 204.5 v 443.5 l -396.1,642.7 h -178.8 v 278.2 h 732.1 v -278.2 h -143.9 l 213.5,-397.6 216.4,397.6 h -152.5 v 278.2 h 645.9 v -278.2 h -180.1 l -375.4,-642.7 v -443.5 h 204.6 v -278.27 h -790.2 z M 2721.82,11109.1 v 278.2 h 699.76 v -278.2 h -144.26 v -741.5 c 0,-98.8 3.6,-170.1 11.12,-213.7 7.19,-43.5 26.58,-79.9 58.15,-108.1 31.22,-28.2 71.05,-42.3 119.13,-42.3 49.88,0 90.79,13.3 123.81,39.9 32.63,27 53.83,60.1 63.51,100.4 9.33,39.9 14,121.8 14,245.2 v 720.1 h -142.11 v 278.2 h 583.49 v -278.2 h -178.7 v -821 c 0,-111.6 -5.39,-193.1 -15.81,-243.9 -10.39,-50.38 -34.79,-100.79 -72.47,-150.82 -38.04,-49.96 -92.59,-90.29 -164.7,-121.36 -71.79,-31.06 -154.33,-46.73 -247.61,-46.73 -107.66,0 -199.88,16.93 -275.97,51.17 -76.07,34.31 -132.42,79.83 -169.74,136.33 -36.94,56.81 -61,112.81 -71.41,168.91 -10.41,55.7 -15.77,150.8 -15.77,285.5 v 741.9 h -174.42 v 0" /></g><g
         transform="scale(1.51712)"
         id="g42"><path
           id="path44"
           style="fill:#d3a657;fill-opacity:1;fill-rule:evenodd;stroke:none"
           d="m 4160.93,6814.04 c 273.03,120.1 753.75,110.48 757.62,-340.84 -472.05,-147.45 -402.76,259.11 -757.62,340.84 z m -211.55,580.58 c 265.15,96.89 718.61,58.86 695.09,-367.67 -454.85,-110.8 -364.89,269.06 -695.09,367.67 z m -183.51,575.76 c 262.33,76 697.55,9.3 646.63,-400.89 -446.36,-76.92 -334.44,283.83 -646.63,400.89 z m -146.2,596.4 c 259.57,55.17 676.52,-40.28 598.21,-434.05 -437.89,-43.04 -303.94,298.59 -598.21,434.05 z m -112.73,630.93 c 256.75,34.21 655.42,-89.84 549.75,-467.27 -429.43,-9.03 -273.5,313.43 -549.75,467.27 z m 965.34,-2983.75 c 267.26,137.03 751.02,156.02 781.78,-297.41 -465.65,-176.38 -420.26,236.37 -781.78,297.41 z M 5918.46,4655.48 c 218.93,238.47 700.81,438.79 901.71,-7.98 -404.73,-352.64 -513.39,81.6 -901.71,7.98 z m -986.76,913.11 c 235.06,210.99 721.97,360.09 874.97,-92.81 -426.34,-304.26 -490.94,127.68 -874.97,92.81 z m 498.28,-466.01 c 220.3,218.7 690.83,389.15 863.39,-47.73 -403.39,-319.81 -488.17,101.05 -863.39,47.73 z m 1011.73,-858.87 c 217.5,258.25 710.81,488.49 940.06,31.83 -406.1,-385.53 -538.66,62.23 -940.06,-31.83 z m 571.13,-377.1 c 216.14,278.09 720.78,538.13 978.37,71.58 -407.48,-418.35 -563.96,42.78 -978.37,-71.58 z m 668.77,-366.35 c 214.69,297.87 730.8,587.76 1016.67,111.33 -408.8,-451.19 -589.15,23.46 -1016.67,-111.33 z m 722.49,-301.63 c 213.3,317.65 740.75,637.46 1054.96,151.15 -410.18,-484.08 -614.39,4.02 -1054.96,-151.15 z M 3844.76,14191.1 c 214.25,-102.8 457.78,-398.6 186.82,-635.1 -334.08,209.1 -52.21,378.1 -186.82,635.1 z m -162.42,-521.3 c 220.12,-84 485.01,-356 236.94,-611.9 -347.24,178.9 -82.82,369.1 -236.94,611.9 z m -134.62,-540.2 c 225.95,-65 512.31,-313.3 287.04,-588.6 -360.36,148.7 -113.32,360.1 -287.04,588.6 z m 669.76,814.1 c -51.33,98.6 -61.81,217.9 -18.8,329.8 42.99,111.8 130.64,193.3 234.82,232.2 51.28,-98.6 61.76,-217.9 18.77,-329.7 -43.03,-111.9 -130.72,-193.4 -234.79,-232.3 z m 13.18,-410.5 c -12.88,-41.3 -25.25,-83.1 -37.12,-125.4 107.94,60.4 251.54,76.6 364.3,59.5 -240.58,-128.5 -130.07,-401.1 -451.18,-416 -9.56,-46 -18.56,-92 -26.99,-138.3 102.12,68.3 242.73,96.2 355.76,88.8 -227.63,-147.5 -96.67,-408 -410.24,-451.2 -2.93,-24.6 -5.67,-49.1 -8.25,-73.6 h -95.71 c 46.93,380.9 120.03,700 239.81,1073.7 -50.73,343.6 318.51,417.6 547,363.3 -249.77,-107.7 -166.45,-385.9 -477.38,-380.7 z M 15613.4,6813.98 c -273,120.1 -753.7,110.47 -757.6,-340.78 472.1,-147.45 402.8,259.11 757.6,340.78 z m 211.6,580.64 c -265.2,96.89 -718.6,58.86 -695.1,-367.67 454.9,-110.87 364.9,269.06 695.1,367.67 z m 183.5,575.76 c -262.3,76 -697.5,9.3 -646.7,-400.89 446.4,-76.92 334.5,283.83 646.7,400.89 z m 146.2,596.4 c -259.5,55.17 -676.5,-40.28 -598.2,-434.05 437.9,-43.04 303.9,298.59 598.2,434.05 z m 112.7,630.93 c -256.7,34.21 -655.4,-89.84 -549.8,-467.27 429.5,-9.03 273.6,313.43 549.8,467.27 z m -965.3,-2983.75 c -267.3,136.97 -751,155.95 -781.8,-297.41 465.7,-176.38 420.3,236.37 781.8,297.41 z M 13855.9,4655.41 c -218.9,238.54 -700.8,438.86 -901.7,-7.91 404.8,-352.71 513.4,81.6 901.7,7.91 z m 986.8,913.12 c -235.1,211.05 -722,360.08 -875,-92.75 426.4,-304.26 490.9,127.68 875,92.75 z m -498.3,-466.02 c -220.3,218.77 -690.9,389.22 -863.4,-47.66 403.4,-319.81 488.2,100.98 863.4,47.66 z m -1011.7,-858.8 c -217.6,258.25 -710.8,488.42 -940.1,31.83 406.2,-385.53 538.7,62.23 940.1,-31.83 z m -571.2,-377.1 c -216.1,278.09 -720.8,538.13 -978.3,71.58 407.5,-418.35 563.9,42.78 978.3,-71.58 z m -668.7,-366.35 c -214.7,297.8 -730.8,587.76 -1016.7,111.33 408.8,-451.19 589.2,23.46 1016.7,-111.33 z m -722.5,-301.63 c -213.3,317.58 -740.8,637.4 -1055,151.15 410.2,-484.15 614.4,4.02 1055,-151.15 z m 4559.3,10992.47 c -214.3,-102.9 -457.7,-398.6 -186.8,-635.1 334.1,209 52.2,378.1 186.8,635.1 z m 162.4,-521.3 c -220.1,-84 -485,-356 -236.9,-611.9 347.2,178.9 82.8,369.1 236.9,611.9 z m 134.6,-540.2 c -225.9,-65 -512.3,-313.3 -287,-588.6 360.4,148.7 113.4,360.1 287,588.6 z m -669.7,814.1 c 51.3,98.6 61.8,217.9 18.8,329.7 -43,111.9 -130.6,193.4 -234.8,232.3 -51.3,-98.7 -61.8,-217.9 -18.8,-329.7 43,-111.9 130.8,-193.5 234.8,-232.3 z m -13.2,-410.5 c 12.9,-41.3 25.3,-83.2 37.1,-125.4 -107.9,60.4 -251.5,76.5 -364.2,59.5 240.5,-128.5 130,-401.2 451.1,-416 9.6,-46 18.6,-92.1 27,-138.3 -102.1,68.3 -242.8,96.2 -355.7,88.8 227.6,-147.6 96.6,-408 410.2,-451.2 2.9,-24.6 5.7,-49.1 8.3,-73.6 h 95.7 c -47,380.9 -120.1,700 -239.8,1073.7 50.7,343.6 -318.6,417.6 -547.1,363.3 249.8,-107.8 166.5,-385.9 477.4,-380.8 z M 5204.28,7437.73 c -146.17,-80.48 -299.59,-237.29 -344.07,-408.41 -20.82,39.81 -41.23,79.89 -61.18,120.23 314.01,276.97 -17.68,437.15 101.81,749.51 -116.59,-73.82 -234.98,-203.08 -284.42,-344.13 -16.46,40.27 -32.56,80.81 -48.25,121.47 324.04,247.18 13.24,423.83 149.46,718.01 -115.09,-62.35 -235.42,-175.92 -293.86,-305.51 -14.63,46.34 -28.81,92.94 -42.56,139.67 323.64,215.28 38.59,407.81 190.56,681.82 -112.7,-50.82 -233.6,-148.18 -300.67,-265.17 -13.44,57.08 -26.29,114.42 -38.52,171.9 316.04,183.97 60.02,391.07 226.74,643.72 -109.87,-39.68 -230.51,-121.35 -305.25,-225.23 -12.13,74.29 -23.33,148.9 -33.66,223.65 H 4020.2 c 138.45,-1011.85 416.11,-1967.29 964.57,-2848.63 276.12,-443.67 613.81,-846.87 1021.74,-1193.78 526.82,-448.02 1014.57,-771.13 1624.48,-1106.5 722.69,-397.47 1424.08,-682.81 2256.19,-910.08 832.12,227.27 1533.52,512.61 2256.22,910.08 609.9,335.37 1097.6,658.48 1624.5,1106.5 407.9,346.91 745.6,750.11 1021.7,1193.78 548.4,881.34 826.1,1836.78 964.6,2848.63 H 15654 c -10.4,-74.75 -21.6,-149.36 -33.7,-223.65 -74.8,103.88 -195.4,185.55 -305.3,225.23 166.8,-252.65 -89.3,-459.75 226.8,-643.72 -12.3,-57.48 -25.1,-114.82 -38.5,-171.9 -67.1,116.99 -188,214.35 -300.7,265.17 152,-274.01 -133.1,-466.54 190.6,-681.82 -13.8,-46.73 -27.9,-93.33 -42.6,-139.67 -58.4,129.59 -178.7,243.16 -293.9,305.51 136.3,-294.18 -174.5,-470.83 149.5,-718.01 -15.7,-40.66 -31.8,-81.2 -48.2,-121.47 -49.5,141.05 -167.9,270.31 -284.5,344.13 119.5,-312.36 -212.1,-472.54 101.8,-749.51 -19.9,-40.34 -40.3,-80.42 -61.2,-120.23 -44.4,171.12 -197.8,327.93 -344,408.41 143.7,-316.06 -181.4,-505.37 138.1,-769.55 -32.7,-52.67 -66.3,-104.74 -100.8,-156.22 -21.4,169.6 -138.9,341.17 -262.6,442.81 84.7,-342.82 -280.2,-469.31 3.1,-797.1 -42.9,-53.66 -86.9,-106.39 -132.1,-158.33 11.7,170.52 -58.8,360.49 -151.6,489.02 -6,-381.58 -433.2,-403.59 -192.8,-846.01 -40.9,-38.23 -82.5,-75.8 -124.9,-112.78 30.2,172.89 -31.3,376.5 -120.6,514.39 -24.5,-370.24 -436.3,-374.65 -237.7,-806.85 -43.9,-33.82 -88.2,-67.3 -132.9,-100.52 36.8,177.18 -17.2,388.36 -102.3,534.23 -42.9,-379.8 -462.3,-369.45 -293.3,-812.26 -43.5,-28.94 -87.2,-57.54 -131.3,-85.82 45.8,182.78 -1,404.78 -83.1,560.34 -61.1,-390.28 -490.2,-364.97 -345.8,-820.77 -49.9,-28.67 -100.2,-56.89 -150.7,-84.77 62,191.16 22.2,432.6 -59.1,602.46 -79.4,-403.46 -524.1,-360.48 -394.8,-838.43 -76,-37.18 -152.4,-73.56 -229.4,-108.96 84.4,200.05 52.7,467.27 -28.9,655.06 -98,-417.37 -559.6,-355.94 -443,-858.53 -95.7,-38.56 -191.9,-75.74 -288.5,-111.4 131,207.96 110.9,524.09 24.5,742.33 -118,-437.21 -608.3,-348.95 -486.4,-900.85 -118.3,-37.51 -237.1,-72.84 -356.02,-105.73 -118.91,32.95 -237.62,68.22 -356.01,105.73 121.88,551.9 -368.39,463.64 -486.38,900.85 -86.42,-218.24 -106.58,-534.37 24.45,-742.33 -96.63,35.66 -192.8,72.84 -288.5,111.4 116.6,502.66 -345,441.16 -442.95,858.53 -81.67,-187.79 -113.31,-455.01 -28.94,-655.06 -76.98,35.4 -153.45,71.78 -229.44,108.96 129.32,477.95 -315.34,434.97 -394.77,838.43 -81.33,-169.86 -121.08,-411.3 -59.05,-602.46 -50.5,27.88 -100.72,56.1 -150.69,84.77 144.36,455.8 -284.75,430.49 -345.85,820.77 -82.06,-155.56 -128.93,-377.49 -83.05,-560.34 -44.1,28.28 -87.87,56.88 -131.3,85.82 168.93,442.81 -250.41,432.46 -293.32,812.26 -85.13,-145.87 -139.12,-357.05 -102.28,-534.23 -44.71,33.22 -89.02,66.7 -132.86,100.52 198.56,432.2 -213.27,436.61 -237.77,806.85 -89.27,-137.89 -150.87,-341.5 -120.59,-514.39 -42.41,36.98 -84.05,74.55 -124.9,112.78 240.38,442.42 -186.85,464.43 -192.85,846.01 -92.75,-128.53 -163.28,-318.43 -151.57,-489.02 -45.2,51.94 -89.25,104.67 -132.16,158.33 283.29,327.79 -81.52,454.28 3.16,797.1 -123.71,-101.64 -241.17,-273.21 -262.65,-442.81 -34.48,51.48 -68.05,103.55 -100.75,156.22 319.46,264.18 -5.55,453.49 138.11,769.55 h 0.01" /></g><g
         transform="scale(1.30783)"
         id="g46"><path
           id="path48"
           style="fill:#ffffff;fill-opacity:1;fill-rule:nonzero;stroke:none"
           d="M 10131.3,8875.06 C 9039.37,8748.59 8031.06,8470.19 7162.51,8075.41 l -46.42,105.29 c 878.81,399.21 1897.9,680.9 3000.61,808.89 3.3,-38.38 8.1,-76.61 14.6,-114.53 z m 2751.9,107.27 c 1079.3,-131.21 2076.9,-409.84 2939.4,-801.63 l -46.4,-105.29 c -852.4,387.36 -1839.2,662.7 -2907.6,792.38 6.4,37.69 11.2,75.93 14.6,114.54 z m -2239.6,1143.27 c -1455.66,-95 -2805.45,-438.52 -3958.5,-968.02 l -46.38,105.22 c 1181.84,542.57 2567.11,891.8 4059.98,981.8 -9.9,-48 -28.8,-85.1 -55.1,-119 z m 1671.2,114.4 c 1464.3,-97.1 2823.1,-443.73 3985.2,-977.2 l -46.4,-105.22 c -1112.2,510.77 -2407.4,848.42 -3804.2,957.02 l -2.7,2.4 -131.9,123 v 0" /></g><g
         transform="scale(1.00783)"
         id="g50"><path
           id="path52"
           style="fill:#d3a657;fill-opacity:1;fill-rule:evenodd;stroke:none"
           d="m 14293.9,13662.6 c 270.4,-265.6 425.1,-601 316.4,-972 -57,-195 -195.3,-397.4 -485.6,-559.1 -368.8,-205.5 -493.3,-486.1 -505.4,-756 -126.7,379.4 -99.6,838.2 172.2,1147.6 261.8,297.6 625.4,415.7 502.4,1139.6 z M 15662.3,12074 c -61.7,-305.6 206.8,-255.2 260.2,20.1 47.6,244.8 -1.4,584.9 -60.5,723.7 269.4,-251.2 438,-609.2 438,-1006.5 0,-693.8 -513.8,-1267.5 -1181.6,-1361.9 168.3,158.1 226.1,374.6 169.4,556.1 -93.7,301 -505.6,359.1 -403.8,766.9 -491.8,-388.9 -590.5,-942.4 -172.1,-1320.4 -442.6,68.6 -904.5,336.4 -927.9,824.5 -12.2,252.3 77.3,523.9 418.9,714.3 493.3,274.8 609,652.1 604,956 -7.3,433.3 -145.1,653.7 420,945.1 -251.9,-692.9 607.3,-967.3 435.4,-1817.9 v 0" /></g><g
         transform="scale(1.0502)"
         id="g54"><path
           id="path56"
           style="fill:#ffffff;fill-opacity:1;fill-rule:evenodd;stroke:none"
           d="m 15640.5,8149.57 209.6,507.81 h -3134.3 l 209.6,-507.81 z M 12265.9,9388.86 H 16300 l -244.8,-593.32 h -3544.6 l -244.7,593.32 z m 1072.5,-2310.6 -88.7,933.05 h 2066.5 l -83,-873.16 -1000.6,-459.25 -376.1,169.69 -20.3,925.44 h -325.6 l 66.2,-695.77 h -238.4 z m 2405.9,2834.97 159.4,-386.21 h -3241.5 l 159.4,386.21 h 2922.7 v 0" /></g><g
         transform="scale(1.24938)"
         id="g58"><path
           id="path60"
           style="fill:#d3a657;fill-opacity:1;fill-rule:evenodd;stroke:none"
           d="m 9587.06,15932.6 -53.31,-268.2 c 692.65,376.9 1716.25,415 2418.95,-196.4 -530.9,757.2 -1536.9,832 -2365.64,464.6 z m 4837.74,0 53.3,-268.2 c -692.6,376.9 -1716.2,415 -2418.9,-196.4 530.9,757.2 1536.9,832 2365.6,464.6 v 0" /></g><g
         transform="scale(1.41881)"
         id="g62"><path
           id="path64"
           style="fill:#ffffff;fill-opacity:1;fill-rule:evenodd;stroke:none"
           d="m 10632.2,13807 c 603.9,686.8 1588.8,606.7 2254.4,255.1 l -373.6,1725 c -478,-352.4 -1313.3,512.9 -1901.7,-219.7 l 20.9,-1760.4 z m 1989.9,572 c -598.4,176 -1314.4,239.6 -1834.3,-182.4 v -52.6 c 515.7,439.8 1243.6,369.5 1844.3,189.4 l -10,45.6 z m -257.6,1175.8 c -543.7,-117.2 -1068.5,380.5 -1576.6,-18.2 v -52.1 c 494.2,416.1 1032.3,-89.7 1585.3,30.3 z m 225.2,-1027.8 c -587.7,139.9 -1289.6,250.9 -1801.8,-163 v -52.5 c 507.6,432.2 1221.4,312.9 1811.5,171 z m -32.4,147.7 -80.3,14.5 c -614.5,111.6 -1218.2,221.2 -1689.2,-157.7 v -52.4 c 460.8,391.5 1066,281.6 1682.3,169.7 l 96.7,-17.5 z m -32.3,147.3 c -573.8,69.1 -1236.2,278.1 -1737.2,-123 v -52.5 c 494,419.1 1170.8,200.6 1746.5,133.2 l -9.3,42.3 z m -32.3,147.1 c -568,33.1 -1206.5,294.7 -1704.9,-102.5 v -52.4 c 489.8,414.8 1144.3,144 1714.1,113.4 l -9.2,41.5 z m -32.1,146.9 c -563.1,-3.5 -1174.9,313.3 -1672.8,-81.9 v -52.3 c 488.1,412.7 1116.7,86.8 1681.8,93.3 z m -32.1,146.5 c -558.5,-40.9 -1140.7,334.3 -1640.7,-60.9 v -52.2 c 488.6,412.4 1087.9,28.8 1649.5,72.7 l -8.8,40.4 z M 8522.51,14379 c 598.46,176 1314.41,239.6 1834.19,-182.4 v -52.6 c -515.62,439.8 -1243.48,369.5 -1844.2,189.4 l 10.01,45.6 z m 257.61,1175.8 c 543.62,-117.2 1068.43,380.5 1576.58,-18.2 v -52.1 c -494.26,416.1 -1032.32,-89.7 -1585.32,30.3 z M 8554.93,14527 c 587.68,139.9 1289.6,250.9 1801.77,-163 v -52.5 c -507.59,432.2 -1221.43,312.9 -1811.5,171 l 9.73,44.5 z m 32.35,147.7 80.42,14.5 c 614.39,111.6 1218.06,221.2 1689,-157.7 v -52.4 c -460.72,391.5 -1065.87,281.6 -1682.23,169.7 l -96.71,-17.5 z m 32.28,147.3 c 573.86,69.1 1236.25,278.1 1737.14,-123 v -52.5 c -493.91,419.1 -1170.75,200.6 -1746.44,133.2 l 9.3,42.3 z m 32.21,147.1 c 568.15,33.1 1206.72,294.7 1704.93,-102.5 v -52.4 c -489.69,414.8 -1144.25,144 -1713.95,113.4 l 9.02,41.5 z m 32.21,146.9 c 563.08,-3.5 1174.93,313.3 1672.82,-81.9 v -52.3 c -488.16,412.7 -1116.72,86.8 -1681.77,93.3 z m 32.14,146.5 c 558.43,-40.9 1140.68,334.3 1640.68,-60.9 v -52.2 c -488.59,412.4 -1087.96,28.8 -1649.56,72.7 l 8.88,40.4 z m 32.07,146.3 c 552.43,-79 1104.73,357 1608.61,-39.7 v -52.2 c -490.77,413.8 -1059.35,-30.1 -1617.42,51.8 z m 3648.31,0 c -552.5,-79 -1104.8,357 -1608.7,-39.7 v -52.2 c 490.8,413.8 1059.4,-30.1 1617.4,51.8 z m -1863.2,158.6 c -588.47,732.6 -1423.75,-132.6 -1901.76,219.7 l -373.62,-1725 c 665.56,351.6 1650.47,431.7 2254.38,-255.1 l 21,1760.4 v 0" /></g><g
         transform="scale(1.24628)"
         id="g66"><path
           id="path68"
           style="fill:#ffffff;fill-opacity:1;fill-rule:evenodd;stroke:none"
           d="m 8571.46,9818.69 166.25,-580.37 -101.98,-29.2 -166.26,580.37 -116.18,-33.3 -27.93,97.57 334.28,95.72 28,-97.57 -116.18,-33.22 z m 588.79,-228.44 -121.56,258.45 16.69,-285.01 z m -210.07,435.65 81.85,20.8 334.19,-642.76 -105.75,-26.8 -57.13,121.56 -142.11,-35.95 7.87,-134.16 -105.76,-26.8 -13.16,724.11 z m 647.93,40.8 106.56,-594.16 -104.47,-18.69 -106.56,594.15 -118.91,-21.3 -17.9,99.9 342.31,61.4 17.89,-99.9 -118.92,-21.4 z m 311.17,159.5 49.99,7.3 55.13,8.1 199.7,29.3 14.8,-101.2 -199.6,-29.3 29.1,-199.18 175.6,25.75 14.9,-101.18 -175.6,-25.75 28.6,-194.91 199.7,29.29 14.8,-101.26 -199.6,-29.21 -55.3,-8.1 -49.9,-7.38 -102.32,697.63 z m 3707.22,-648.79 c -34.8,3.93 -63.5,14.45 -86.8,31.37 -23,17.02 -39.6,39.48 -49.5,67.65 -10,28.08 -13,60.9 -8.6,98.61 l 40.7,357.56 c 4.3,37.5 14.6,69 30.6,94.3 16.1,25.3 37.3,43.6 63.6,54.8 26.4,11.1 56.8,14.8 91.5,10.9 35,-4 64.1,-14.5 87.2,-31.3 23.3,-16.9 39.7,-39.4 49.6,-67.7 10,-28.3 12.9,-61.3 8.6,-98.7 l -5,-43.4 -106.9,12.2 4.9,43.3 c 1.8,15.6 1,29 -2.1,40.5 -3.4,11.6 -9,20.8 -17.2,27.5 -8.3,6.9 -18.6,11 -31.1,12.5 -12.2,1.3 -22.9,-0.4 -32.3,-5.2 -9.4,-4.8 -16.9,-12.4 -22.9,-23.1 -5.9,-10.4 -9.7,-23.3 -11.4,-38.8 l -40.8,-357.56 c -1.8,-15.48 -1,-28.88 2.4,-40.28 3.6,-11.55 9.2,-20.53 17.2,-27.44 8.1,-6.74 18.1,-10.75 30.3,-12.11 12.5,-1.45 23.5,0.16 33.1,4.89 9.5,4.9 17,12.36 22.9,22.87 5.6,10.35 9.5,23.43 11.3,39.24 l 4.9,42.92 106.9,-12.19 -4.9,-42.93 c -4.3,-37.71 -14.5,-69.01 -30.5,-94.52 -16.2,-25.27 -37.2,-43.57 -63.6,-54.88 -26.3,-11.32 -57,-15.01 -92.1,-11 z m 421,46.22 c 14.6,-2.17 27.8,-1.2 39.1,2.81 11.3,4.01 20.5,11.07 27.7,20.86 6.9,10.03 11.4,22.63 13.7,37.95 l 52.8,360.85 c 2.2,15.1 1.5,28.4 -2.4,39.9 -4,11.6 -10.8,20.7 -20.5,28.1 -9.6,7.1 -22,11.7 -36.6,13.9 -14.7,2.1 -27.7,1.1 -38.9,-2.9 -11.3,-4.1 -20.3,-11 -27.3,-21.1 -7.1,-9.8 -11.7,-22.4 -13.9,-37.5 l -52.8,-360.79 c -2.2,-15.4 -1.5,-28.72 2.5,-40.36 3.9,-11.39 10.5,-20.78 20.2,-27.84 9.5,-7.14 21.7,-11.71 36.4,-13.88 z m -15.2,-104.23 c -36.9,5.46 -67.4,16.77 -91.9,34.02 -24.4,17.33 -41.7,39.64 -51.8,67 -10,27.28 -12.4,58.66 -7.2,94.6 l 54.6,372.98 c 5.2,35.7 16.6,65.3 34.1,88.8 17.5,23.4 40.4,39.8 68.7,49 28.3,9.3 60.9,11.2 97.7,5.8 37.1,-5.5 67.9,-16.6 92.1,-33.6 24.3,-16.9 41.5,-39.2 51.7,-66.5 10.2,-27.7 12.7,-59.3 7.5,-95 l -54.5,-372.99 c -5.3,-35.87 -16.8,-65.32 -34.5,-88.5 -17.6,-23.35 -40.4,-39.72 -68.5,-49.35 -28.2,-9.55 -61,-11.64 -98,-6.26 z m 409.7,660 103.9,-22.2 -126.3,-590.54 187.9,-40.12 -21.2,-99.09 -187.8,40.12 -55.5,11.87 -48.4,10.35 147.4,689.61 z m 355.7,-79.5 103.9,-22.1 -126.2,-590.58 187.8,-40.12 -21.2,-99.09 -187.8,40.12 -55.5,11.87 -48.4,10.36 147.4,689.54 z m 379.3,-86.6 49,-12.2 54.1,-13.59 195.7,-49.02 -24.8,-99.26 -195.7,49.03 -49,-195.22 172.2,-43.09 -24.9,-99.26 -172.2,43.09 -47.8,-191.05 195.7,-49.02 -24.8,-99.26 -195.8,49.03 -54,13.56 v 0 l -49.1,12.27 171.4,683.99 z m 640.9,-522.54 -64.8,-198.36 c -11.5,-35.54 -28,-63.95 -49.1,-85.05 -21.2,-21.34 -46.3,-34.58 -75.1,-40.12 -28.8,-5.61 -60.4,-2.73 -94.9,8.51 -34.7,11.31 -62.4,27.44 -83,48.54 -20.9,21.02 -33.7,45.9 -38.7,74.62 -5.1,28.57 -2.2,60.02 9,94.2 l 113.8,348.56 c 11.7,36.19 28.4,65.24 49.5,86.9 21.1,21.67 46.3,35.23 75.3,40.76 29,5.46 60.6,2.65 94.6,-8.42 33.9,-11.08 60.6,-27.12 80.2,-47.99 19.9,-20.94 31.9,-45.89 36.4,-75.42 4.6,-29.29 1.2,-61.46 -10.3,-96.61 l -13.8,-42.28 -105.6,34.42 13.8,42.36 c 4.7,14.13 6.4,26.96 5.4,38.28 -1,11.47 -4.8,21.1 -11.5,29.05 -6.6,7.86 -15.6,13.8 -27.5,17.65 -12.5,4.09 -24.3,4.81 -35.6,2.24 -11.3,-2.56 -21.1,-8.66 -29.3,-17.81 -8.3,-9.15 -14.8,-21.26 -19.7,-36.35 l -113.7,-348.63 c -4.3,-12.92 -5.4,-24.88 -3.4,-35.79 1.9,-11.08 7,-20.62 15.2,-28.65 8,-8.18 18.6,-14.28 31.9,-18.61 13.1,-4.26 25.3,-5.46 36.7,-3.45 11.1,2.24 21.1,7.62 29.4,16.2 8.4,8.67 14.9,20.15 19.7,34.67 l 33.6,102.86 -66,21.59 31.5,96.29 166,-54.16 z m 202.8,277.78 47.4,-17.33 52.4,-19.18 189.5,-69.24 -35.1,-96.05 -189.6,69.25 -69.1,-189.13 166.7,-60.82 -35.1,-96.12 -166.7,60.9 -67.6,-185.03 189.6,-69.25 -35.2,-96.05 -189.5,69.25 -52.4,19.1 -47.4,17.33 242.1,662.37 z M 8198.42,9059.95 c -34.66,-12.68 -66.27,-17.17 -95.4,-13.72 -28.97,3.53 -54.24,14.92 -75.75,34.02 -21.46,19.34 -38.39,45.9 -50.76,79.84 l -12.5,34.18 99.13,36.75 12.04,-32.74 c 7.46,-20.46 18.77,-34.1 34.1,-41.32 15.48,-7.06 33.22,-6.9 53.6,0.56 19.74,7.22 32.9,18.38 39.72,33.38 6.74,14.92 6.41,32.66 -1.04,52.96 l -21.11,57.85 c -5.21,14.37 -13.4,25.12 -24.55,32.5 -11.08,7.22 -23.51,12.19 -37.23,14.92 -13.8,2.73 -32.18,5.22 -55.37,7.47 -1.04,-0.09 -2.08,-0.09 -3.21,0 -1.04,0.16 -2.16,0.32 -3.05,0.32 l -6.9,0.48 c -31.1,3.04 -57.66,7.86 -79.89,14.12 -22.07,6.42 -43.2,18.45 -63.15,35.79 -19.96,17.57 -36.04,42.76 -48.01,75.58 l -13.29,36.35 c -12.12,33.14 -16.07,63.71 -12.05,91.79 3.97,28.25 15.92,52.88 35.69,74.06 19.77,21.19 46.87,38.12 81.1,50.55 33.75,12.36 64.76,16.61 92.86,13 28.17,-3.61 52.88,-15 74.14,-34.42 21.11,-19.26 37.88,-45.74 50.15,-79.44 l 13.08,-35.94 -99.41,-37.47 -12.68,34.74 c -7.54,20.46 -18.46,34.5 -32.66,41.97 -14.12,7.38 -30.96,7.54 -50.06,0.56 -20.04,-7.39 -33.52,-18.22 -40.51,-32.42 -6.98,-14.2 -7.05,-30.81 -0.18,-49.59 l 15.67,-42.93 c 5.3,-14.44 13.42,-25.59 24.36,-33.38 10.92,-7.62 23.01,-12.75 36.28,-15.32 13.24,-2.57 31.21,-4.98 53.68,-6.98 3.21,-0.24 6.34,-0.48 9.31,-0.97 3.21,-0.48 6.42,-0.64 9.94,-0.8 1.05,-0.32 2.33,-0.4 3.54,-0.48 1.12,-0.08 2.64,-0.32 4.09,-0.48 30.33,-2.97 55.28,-7.06 75.26,-12.52 19.82,-5.21 39,-15.96 57.53,-32.5 18.7,-16.44 33.86,-41 45.66,-73.5 l 21.18,-57.85 c 12.36,-33.94 16.69,-65.07 12.84,-93.63 -3.85,-28.41 -15.73,-53.36 -35.3,-74.55 -19.58,-21.26 -46.46,-38.19 -80.89,-50.71 v -0.08" /></g><g
         transform="scale(1.27913)"
         id="g70"><path
           id="path72"
           style="fill:#ffffff;fill-opacity:1;fill-rule:evenodd;stroke:none"
           d="m 7829.46,15720.6 c -29.71,0 -54.89,5.4 -75.94,16 -20.93,10.7 -36.92,26.3 -47.84,46.6 -10.92,20.6 -16.37,45.4 -16.37,74.4 v 29.3 l 85.13,0.4 v -28.1 c 0,-17.5 4.79,-30.9 14.41,-40.6 9.7,-9.6 23.17,-14.4 40.61,-14.4 16.96,0 30.02,4.8 39.32,14.2 9.23,9.5 13.84,23 13.84,40.4 v 49.6 c 0,12.2 -3.21,22.6 -9.54,31.3 -6.41,8.5 -14.46,15.7 -24,21.6 -9.77,5.8 -22.98,12.8 -39.87,20.9 -0.8,0.3 -1.61,0.6 -2.39,0.9 -0.8,0.4 -1.61,0.8 -2.27,1.1 l -5.08,2.3 c -22.67,10.9 -41.41,21.8 -56.49,32.8 -14.92,10.9 -27.57,25.8 -37.84,44.4 -10.27,18.8 -15.47,42.3 -15.47,70.4 v 31.2 c 0,28.4 5.47,52.6 16.26,72.7 10.79,20.3 26.66,35.6 47.44,46.1 20.79,10.6 45.96,15.9 75.23,15.9 29,0 53.63,-5.3 73.88,-15.9 20.24,-10.5 35.8,-25.9 46.51,-46.5 10.64,-20.4 15.95,-45 15.95,-73.9 v -30.8 l -85.53,-0.8 v 29.7 c 0,17.6 -4.38,31.2 -13.05,40.8 -8.68,9.5 -21.34,14.3 -37.76,14.3 -17.17,0 -30.34,-4.6 -39.56,-13.4 -9.19,-8.8 -13.84,-21.3 -13.84,-37.4 v -36.8 c 0,-12.4 3.06,-23.1 9.19,-32 6.14,-8.8 13.87,-16 23.18,-21.6 9.33,-5.6 22.28,-12.4 38.62,-20.1 2.42,-1.1 4.69,-2.1 6.88,-3.3 2.26,-1.2 4.61,-2.3 7.27,-3.4 0.7,-0.5 1.64,-0.9 2.58,-1.3 0.78,-0.4 1.8,-1 2.89,-1.5 22.12,-10.6 39.87,-20.6 53.47,-30.2 13.53,-9.5 25.02,-23 34.48,-40.5 9.62,-17.6 14.31,-40.4 14.31,-68.2 v -49.6 c 0,-29.1 -5.4,-53.8 -16.19,-74.4 -10.79,-20.4 -26.65,-35.9 -47.29,-46.6 -20.64,-10.7 -45.66,-16 -75.13,-16 z m 354.07,491.8 v -485.9 h -85.45 v 485.9 h -97.26 v 81.7 h 279.96 v -81.7 h -97.25 z m 203.42,81.7 h 29.78 62.07 c 25.96,0 48.24,-4.8 66.77,-14.5 18.37,-9.6 32.52,-23.6 42.37,-42 9.7,-18.2 14.47,-40.5 14.47,-66.5 v -321.6 c 0,-25.9 -4.77,-48 -14.47,-66.4 -9.93,-18.5 -24,-32.5 -42.68,-42.2 -18.53,-9.6 -40.89,-14.4 -66.85,-14.4 h -61.68 -29.78 -55.82 v 567.7 h 55.82 z m 29.78,-486.1 h 58.09 c 13.29,0 23.53,4.2 30.64,12.2 7.2,8.1 10.79,19.4 10.79,33.9 v 312.8 c 0,14.5 -3.59,25.8 -10.79,33.7 -7.11,8 -17.35,11.9 -30.64,11.9 h -58.09 v -404.4 z m 222.89,5.9 h 87.4 v -87.4 h -87.4 z m 6190.08,-11.3 120.5,212.8 c 17.2,29.7 30.1,56.6 38.4,80.7 8.3,24.3 12.4,45.6 12.4,64.1 v 4.3 c 0,17.2 -3.3,30.1 -9.9,38.9 -6.6,8.7 -16.7,13.1 -30.2,13.1 -16,0 -27.7,-5.9 -35.5,-17.6 -7.9,-11.8 -11.8,-29.3 -11.8,-52.8 v -10.9 h -87 v 10.9 c 0,34.1 4.8,62.6 14.4,85.4 9.6,22.7 24.1,39.8 43.6,51.3 19.3,11.5 43.5,17.2 72.7,17.2 29.2,0 53.4,-5.1 72.9,-15.3 19.3,-10.2 33.9,-25.2 43.7,-45.4 9.7,-20.2 14.6,-45.4 14.6,-75.6 v -3.9 c 0,-21.8 -4.7,-46.7 -13.7,-74.6 -9,-27.9 -22.8,-58.6 -41.1,-92.5 l -98.6,-183.4 h 152.6 v -82.8 h -258 v 76.1 z m 453.6,0.8 c 13.8,0 24.4,4.4 32.2,13.3 7.6,8.8 11.5,21.3 11.5,37.4 v 312.8 c 0,15.9 -3.9,28.3 -11.5,37.1 -7.8,8.7 -18.4,13.3 -32.2,13.3 -13.6,0 -24.2,-4.6 -31.9,-13.3 -7.6,-8.8 -11.5,-21.2 -11.5,-37.1 v -312.8 c 0,-16.1 3.9,-28.6 11.5,-37.4 7.7,-8.9 18.3,-13.3 31.9,-13.3 z m 0,-82.8 c -41,0 -72.5,11.6 -95.1,35 -22.5,23.3 -33.8,56.2 -33.8,98.5 v 312.8 c 0,42.4 11.3,75.1 33.8,98.3 22.6,23.2 54.1,34.8 95.1,34.8 41.1,0 72.8,-11.6 95.3,-34.8 22.6,-23.2 33.9,-55.9 33.9,-98.3 v -312.8 c 0,-42.3 -11.3,-75.2 -33.9,-98.5 -22.5,-23.4 -54.2,-35 -95.3,-35 z m 198.2,82 120.6,212.8 c 17.2,29.7 30,56.6 38.4,80.7 8.3,24.3 12.4,45.6 12.4,64.1 v 4.3 c 0,17.2 -3.4,30.1 -9.9,38.9 -6.7,8.7 -16.8,13.1 -30.2,13.1 -16,0 -27.8,-5.9 -35.7,-17.6 -7.8,-11.8 -11.7,-29.4 -11.7,-52.8 v -10.9 h -87 v 10.9 c 0,34.1 4.8,62.6 14.5,85.4 9.5,22.7 24,39.8 43.5,51.3 19.3,11.5 43.6,17.2 72.7,17.2 29.3,0 53.5,-5.1 73,-15.3 19.3,-10.2 33.8,-25.2 43.7,-45.4 9.7,-20.2 14.6,-45.4 14.6,-75.6 v -3.9 c 0,-21.8 -4.6,-46.7 -13.7,-74.6 -9.1,-27.9 -22.8,-58.6 -41,-92.5 l -98.8,-183.4 h 152.7 v -82.8 h -258.1 v 76.1 z m 320.1,0 120.5,212.8 c 17.2,29.7 30.1,56.6 38.4,80.7 8.3,24.3 12.5,45.6 12.5,64.1 v 4.3 c 0,17.2 -3.4,30.1 -9.9,38.9 -6.7,8.7 -16.8,13.1 -30.3,13.1 -16,0 -27.7,-5.9 -35.5,-17.6 -7.9,-11.8 -11.8,-29.4 -11.8,-52.8 v -10.9 h -87 v 10.9 c 0,34.1 4.8,62.6 14.4,85.4 9.6,22.7 24.1,39.8 43.6,51.3 19.3,11.5 43.5,17.2 72.7,17.2 29.2,0 53.5,-5.1 72.9,-15.3 19.3,-10.2 33.9,-25.2 43.6,-45.4 9.8,-20.2 14.7,-45.4 14.7,-75.6 v -3.9 c 0,-21.8 -4.7,-46.7 -13.7,-74.6 -9,-27.9 -22.8,-58.6 -41,-92.5 l -98.7,-183.4 h 152.7 v -82.8 h -258.2 v 76.1 z m -8408.66,491.5 h 40.64 44.89 162.44 v -82.3 h -162.44 v -162.1 h 142.84 v -82.3 h -142.84 v -158.6 h 162.44 v -82.3 h -162.44 -44.89 -40.64 v 567.6" /></g></g></g></svg>